<!-- Generated by IcoMoon.io -->
<svg version="1.1" xmlns="http://www.w3.org/2000/svg" width="1024" height="1024" viewBox="0 0 1024 1024">
<g id="icomoon-ignore">
</g>
<path fill="#453864" d="M66.319 252.080c-139.219 241.281-56.589 549.375 184.451 688.594 241.079 139.18 549.375 56.63 688.594-184.451s56.589-549.375-184.451-688.635c-241.079-139.18-549.375-56.589-688.594 184.451z"></path>
<path fill="#f4f2f5" d="M851.417 499.691c-10.613-31.862-31.054-58.065-57.674-75.686l-0.537-0.333-28.599 49.489c14.269 10.203 25.215 24.22 31.438 40.568l0.202 0.605z"></path>
<path fill="#614872" d="M559.47 557.049l-26.773-15.374-28.314 49.287 26.733 15.415z"></path>
<path fill="#765c82" d="M605.39 583.579l-32.046-18.539-28.396 49.287 31.884 18.498 28.599-49.245z"></path>
<path fill="#917997" d="M663.114 616.884l-43.932-25.272-28.396 49.287 43.77 25.272 28.558-49.287z"></path>
<path fill="#ae9bb1" d="M728.707 631.203c-17.483 3.002-35.496 0.73-51.679-6.612l-28.396 49.489c18.893 9.715 41.227 15.41 64.891 15.41 10.636 0 21.004-1.151 30.986-3.334l-0.955 0.175z"></path>
<path fill="#c5b7c7" d="M785.661 595.464c-10.263 14.523-24.704 25.555-41.377 31.723l14.806 55.128c31.847-10.666 58.039-31.109 75.686-57.715l0.335-0.536z"></path>
<path fill="#d9d0db" d="M843.223 610.149c9.729-18.915 15.431-41.274 15.431-64.963 0-10.61-1.144-20.952-3.315-30.913l0.175 0.954-55.169 14.684c3.246 17.443 0.933 35.535-6.572 51.639z"></path>
<path fill="#fff" d="M562.714 457.543l-10.952 19.065-1.298 1.987-60.078 104.212h-0.163c-26.020 41.532-71.537 68.743-123.408 68.743-26.584 0-51.501-7.147-72.93-19.626l0.691 0.372-75.086-43.404c-43.604-25.492-72.432-72.083-72.432-125.409 0-79.959 64.82-144.78 144.78-144.78 26.636 0 51.593 7.192 73.032 19.742l-0.685-0.37 151.308 87.418c26.039-41.535 71.568-68.745 123.454-68.745 26.565 0 51.463 7.132 72.885 19.587l-0.694-0.373 68.15 39.47-28.396 49.245-68.15-39.348c-12.573-7.321-27.673-11.642-43.783-11.642-32.365 0-60.656 17.443-75.985 43.44l-0.225 0.411zM487.060 474.743l-151.269-87.337c-12.566-7.31-27.656-11.626-43.753-11.626-32.358 0-60.644 17.434-75.975 43.422l-0.225 0.41c-7.322 12.589-11.645 27.705-11.645 43.83 0 32.294 17.334 60.538 43.205 75.938l0.406 0.223 75.288 43.404c12.486 7.344 27.507 11.683 43.538 11.683 8.165 0 16.068-1.126 23.561-3.228l-0.612 0.146c22.971-6.218 41.783-20.894 53.282-40.398l0.223-0.41z"></path>
<path fill="#000" d="M0.072 1022.508v-0.094l0.568-0.236v-1.561l-1.372-1.798-0.379-0.236v-0.094h1.561v0.094l-0.473 0.236 1.136 1.468 0.947-1.42v-0.048l-0.473-0.236v-0.094h1.326v0.094l-0.379 0.19-1.278 1.894v1.516l0.521 0.236v0.094h-1.704zM4.332 1022.554q-0.379 0-0.709-0.19-0.283-0.19-0.473-0.473-0.19-0.379-0.19-0.757 0-0.426 0.19-0.709 0.19-0.331 0.473-0.521 0.331-0.19 0.709-0.19 0.426 0 0.709 0.19 0.331 0.19 0.473 0.473 0.19 0.331 0.19 0.757 0 0.379-0.19 0.709-0.142 0.331-0.473 0.521-0.283 0.19-0.709 0.19zM4.426 1022.319q0.236 0 0.379-0.19 0.142-0.142 0.19-0.379l0.094-0.473-0.094-0.661-0.236-0.473q-0.19-0.19-0.473-0.19-0.236 0-0.379 0.142l-0.236 0.426-0.048 0.473 0.048 0.616q0.094 0.331 0.283 0.473 0.19 0.236 0.473 0.236zM7.36 1022.554q-0.379 0-0.616-0.19-0.236-0.142-0.236-0.473v-1.846l-0.379-0.19v-0.094h0.947v1.798q0 0.283 0.19 0.379 0.142 0.142 0.379 0.142h0.331l0.331-0.19v-1.846l-0.473-0.19v-0.094h1.041v2.46l0.426 0.19v0.094h-0.995v-0.379h-0.048q-0.236 0.236-0.473 0.331-0.19 0.094-0.473 0.094zM9.727 1022.508v-0.094l0.379-0.19v-1.846l-0.379-0.283v-0.048l0.851-0.331h0.048l0.048 0.473 0.283-0.331 0.236-0.142h0.426l0.142 0.094 0.048 0.094v0.142l-0.142 0.283h-0.048l-0.236-0.048-0.142-0.048h-0.094q-0.283 0-0.473 0.236v1.751l0.473 0.19v0.094h-1.42zM15.879 1022.554q-0.661 0-1.136-0.236-0.473-0.283-0.709-0.709-0.236-0.473-0.236-0.995 0-0.473 0.19-0.851 0.142-0.379 0.473-0.661 0.283-0.331 0.661-0.473 0.379-0.19 0.805-0.19h0.521l0.379 0.142 0.331 0.142 0.048 1.089h-0.094l-0.426-0.805-0.379-0.19q-0.142-0.094-0.379-0.094-0.426 0-0.757 0.236t-0.473 0.616q-0.236 0.379-0.236 0.899t0.19 0.947 0.473 0.616q0.331 0.236 0.709 0.236 0.331 0 0.568-0.094l0.379-0.19 0.379-0.709h0.142l-0.094 0.947q-0.283 0.19-0.568 0.236-0.331 0.094-0.805 0.094zM19.43 1022.554q-0.379 0-0.709-0.19-0.283-0.19-0.473-0.473-0.19-0.379-0.19-0.757 0-0.426 0.19-0.709 0.19-0.331 0.473-0.521 0.331-0.19 0.709-0.19 0.426 0 0.709 0.19 0.331 0.19 0.473 0.473 0.19 0.331 0.19 0.757 0 0.379-0.19 0.709-0.142 0.331-0.473 0.521-0.283 0.19-0.709 0.19zM19.523 1022.319q0.236 0 0.379-0.19 0.142-0.142 0.19-0.379l0.094-0.473-0.094-0.661-0.236-0.473q-0.19-0.19-0.473-0.19-0.236 0-0.379 0.142l-0.236 0.426-0.048 0.473 0.048 0.616q0.094 0.331 0.283 0.473 0.19 0.236 0.473 0.236zM21.369 1022.508v-0.094l0.379-0.19v-1.846l-0.379-0.283v-0.048l0.851-0.331 0.094 0.473q0.236-0.283 0.473-0.379 0.19-0.094 0.473-0.094t0.473 0.094q0.19 0.142 0.283 0.426 0.236-0.283 0.473-0.426l0.473-0.094q0.379 0 0.616 0.142 0.19 0.19 0.19 0.568v1.798l0.426 0.19v0.094h-1.42v-0.094l0.473-0.19v-1.516q0-0.283-0.19-0.426-0.142-0.094-0.379-0.094l-0.379 0.048-0.283 0.19v1.798l0.379 0.19v0.094h-1.326v-0.094l0.379-0.19v-1.516q0-0.283-0.142-0.426-0.142-0.094-0.379-0.094h-0.331l-0.283 0.19v1.846l0.379 0.19v0.094h-1.326zM26.622 1023.928v-0.142l0.426-0.19v-3.218l-0.379-0.283v-0.048l0.851-0.331 0.048 0.379h0.048q0.236-0.236 0.473-0.283 0.19-0.094 0.473-0.094t0.473 0.142q0.283 0.142 0.426 0.473 0.142 0.283 0.142 0.661 0 0.473-0.19 0.851-0.19 0.331-0.521 0.521t-0.709 0.19l-0.568-0.048v1.089l0.473 0.19v0.142h-1.42zM28.183 1020.142q-0.331 0-0.568 0.142v1.751q0.142 0.142 0.331 0.19l0.379 0.048q0.19 0 0.331-0.094t0.236-0.331 0.094-0.661q0-0.379-0.094-0.568-0.094-0.236-0.331-0.379l-0.379-0.094zM30.834 1022.554q-0.331 0-0.473-0.142-0.236-0.19-0.236-0.473 0-0.331 0.236-0.521 0.19-0.236 0.757-0.379l0.568-0.094v-0.473q0-0.19-0.142-0.331-0.19-0.142-0.379-0.142-0.236 0-0.331 0.094-0.094 0.142-0.094 0.331v0.19h-0.473v-0.426l0.283-0.236 0.379-0.19 0.426-0.048 0.426 0.048q0.236 0.048 0.331 0.236 0.142 0.142 0.142 0.379v1.704l0.142 0.094h0.426v0.048q-0.048 0.142-0.236 0.236-0.142 0.094-0.331 0.094-0.236 0-0.331-0.094-0.142-0.094-0.19-0.283h-0.048q-0.142 0.19-0.379 0.283l-0.473 0.094zM30.693 1021.799q0 0.379 0.473 0.379h0.236l0.283-0.142v-0.899l-0.661 0.19-0.283 0.19v0.283zM33.105 1022.508v-0.094l0.473-0.19v-1.846l-0.426-0.283v-0.048l0.851-0.331 0.094 0.473 0.473-0.379 0.473-0.094q0.379 0 0.616 0.142 0.236 0.19 0.236 0.568v1.798l0.379 0.19v0.094h-1.42v-0.094l0.473-0.19v-1.516q0-0.283-0.19-0.426-0.142-0.094-0.426-0.094h-0.331l-0.283 0.19v1.846l0.426 0.19v0.094h-1.42zM36.891 1023.976h-0.142v-0.521h0.521l0.142-0.19 0.19-0.331 0.19-0.473-1.136-2.413-0.426-0.19v-0.094h1.516v0.094l-0.473 0.19 0.805 1.704 0.661-1.656-0.473-0.236v-0.094h1.23v0.094l-0.473 0.19-1.278 3.17-0.094 0.19-0.142 0.19-0.283 0.283q-0.142 0.094-0.331 0.094zM41.152 1022.508v-0.094l0.473-0.236v-3.313l-0.473-0.283v-0.094h0.947l2.367 2.838v-2.508l-0.616-0.236v-0.094h1.516v0.094l-0.473 0.236v3.738h-0.283l-2.508-3.124v2.745l0.616 0.236v0.094h-1.561zM46.593 1022.554q-0.283 0-0.473-0.142-0.19-0.19-0.19-0.473 0-0.331 0.19-0.521 0.236-0.236 0.757-0.379l0.616-0.094v-0.473q0-0.19-0.19-0.331-0.142-0.142-0.379-0.142t-0.283 0.094q-0.094 0.142-0.094 0.331v0.19h-0.568v-0.142l0.048-0.283q0.094-0.142 0.283-0.236l0.379-0.19 0.379-0.048 0.473 0.048q0.19 0.048 0.331 0.236 0.142 0.142 0.142 0.379v1.704l0.094 0.094h0.473v0.048q0 0.142-0.19 0.236-0.142 0.094-0.379 0.094-0.19 0-0.331-0.094l-0.19-0.283q-0.19 0.19-0.426 0.283-0.19 0.094-0.473 0.094zM46.499 1021.799q0 0.379 0.426 0.379h0.236l0.331-0.142v-0.899l-0.661 0.19q-0.236 0.094-0.283 0.19l-0.048 0.283zM48.913 1022.508v-0.094l0.426-0.19v-1.846l-0.379-0.283v-0.048l0.851-0.331 0.094 0.473q0.236-0.283 0.473-0.379 0.19-0.094 0.473-0.094l0.473 0.094q0.19 0.142 0.236 0.426l0.473-0.426q0.236-0.094 0.521-0.094 0.379 0 0.568 0.142 0.236 0.19 0.236 0.568v1.798l0.379 0.19v0.094h-1.372v-0.094l0.426-0.19v-1.516q0-0.283-0.142-0.426-0.19-0.094-0.426-0.094l-0.331 0.048q-0.19 0.048-0.283 0.19v1.798l0.379 0.19v0.094h-1.278v-0.094l0.379-0.19v-1.516q0-0.283-0.142-0.426-0.19-0.094-0.426-0.094h-0.283l-0.283 0.19v1.846l0.379 0.19v0.094h-1.372zM55.587 1022.554q-0.616 0-0.947-0.331-0.331-0.379-0.331-0.947 0-0.473 0.142-0.805 0.19-0.379 0.473-0.568 0.331-0.19 0.709-0.19 0.473 0 0.757 0.331t0.283 0.947h-1.846q0 0.283 0.142 0.521 0.094 0.236 0.283 0.379 0.236 0.19 0.616 0.19 0.331 0 0.805-0.236v0.048q-0.142 0.283-0.473 0.473-0.236 0.19-0.616 0.19zM55.539 1019.952q-0.283 0-0.473 0.236-0.142 0.19-0.19 0.568h1.278q-0.048-0.473-0.236-0.616-0.142-0.19-0.379-0.19z"></path>
</svg>
