<svg xmlns="http://www.w3.org/2000/svg" version="1.1" xmlns:xlink="http://www.w3.org/1999/xlink" viewBox="0 0 12.621242695509885 14.135640116585847"><g transform="matrix(0.8571428571428572,0,0,0.8571428571428572,1.8030346707871256,11.14057705857901)"><g transform="matrix(1,0,0,1,0,0)" clip-path="url(#SvgjsClipPath7830)"><g clip-path="url(#SvgjsClipPath78289ed2360d-191d-45e6-b1b4-b77f5403e025)"><path d=" M 9.812323119942736 -8.138127229200293 C 11.264366178557777 -5.62143319663803 10.40268448404383 -2.4074750891437997 7.888074324987037 -0.9554320305287565 C 5.373464165930246 0.49661102808628677 2.1574221849305433 -0.36486227907711566 0.705379126315501 -2.8794724381339067 C -0.7466639322995411 -5.394082597190699 0.11501776221440839 -8.610124578190401 2.629627921271198 -10.062167636805443 C 5.1442380803279875 -11.514210695420486 8.360280061327693 -10.652737388257083 9.812323119942736 -8.138127229200293 Z" fill="#453864" transform="matrix(1,0,0,1,0,0)" fill-rule="evenodd"></path></g><g clip-path="url(#SvgjsClipPath78289ed2360d-191d-45e6-b1b4-b77f5403e025)"><path d=" M 1.6227002434256363 -5.555582793865016 C 1.7290863937914334 -5.881294334678695 1.9433610359338849 -6.160990737200832 2.230149370271626 -6.34849666269829 L 2.52835166890511 -5.832529582742657 C 2.3774964557640765 -5.725686196640106 2.262325413002526 -5.575876700286336 2.1978493309367613 -5.402626478563146 Z" fill="#f4f2f5" transform="matrix(1,0,0,1,0,0)" fill-rule="nonzero"></path></g><g clip-path="url(#SvgjsClipPath78289ed2360d-191d-45e6-b1b4-b77f5403e025)"><path d=" M 4.6682535579773825 -4.956938588237187 L 4.947149649659942 -5.117375732015001 L 5.24298161101709 -4.6031159049293455 L 4.964085519334529 -4.442678761151533 Z" fill="#614872" transform="matrix(1,0,0,1,0,0)" fill-rule="nonzero"></path></g><g clip-path="url(#SvgjsClipPath78289ed2360d-191d-45e6-b1b4-b77f5403e025)"><path d=" M 4.188782078067661 -4.680355921565479 L 4.523243775696412 -4.873530995523019 L 4.819362200824423 -4.359439401722316 L 4.4869843767011455 -4.166472715115322 L 4.188782078067661 -4.680355921565479 Z" fill="#765c82" transform="matrix(1,0,0,1,0,0)" fill-rule="nonzero"></path></g><g clip-path="url(#SvgjsClipPath78289ed2360d-191d-45e6-b1b4-b77f5403e025)"><path d=" M 3.586959409686455 -4.332765820852234 L 4.045411580890975 -4.596375819294833 L 4.341738393369532 -4.082284225494128 L 3.884953320969393 -3.8186742270515293 L 3.586959409686455 -4.332765820852234 Z" fill="#917997" transform="matrix(1,0,0,1,0,0)" fill-rule="nonzero"></path></g><g clip-path="url(#SvgjsClipPath78289ed2360d-191d-45e6-b1b4-b77f5403e025)"><path d=" M 2.902823737838984 -4.183560477860218 C 3.0852893922326428 -4.152107922238036 3.272993933599911 -4.176060937957758 3.441713426354841 -4.252328303540895 L 3.737831851482851 -3.7363612235852646 C 3.432034872151579 -3.582392357441327 3.082888592540603 -3.5372606067716132 2.747991936382183 -3.6084113903490946 Z" fill="#ae9bb1" transform="matrix(1,0,0,1,0,0)" fill-rule="nonzero"></path></g><g clip-path="url(#SvgjsClipPath78289ed2360d-191d-45e6-b1b4-b77f5403e025)"><path d=" M 2.308503014077488 -4.556157060639164 C 2.4157559335258907 -4.404832572349615 2.566380488820447 -4.289593525221218 2.740489991762474 -4.225654722670814 L 2.585658190305675 -3.65050563515969 C 2.260159081251375 -3.7574070553342453 1.9805975754111442 -3.971651825644395 1.7927443214724035 -4.2581631493562275 Z" fill="#c5b7c7" transform="matrix(1,0,0,1,0,0)" fill-rule="nonzero"></path></g><g clip-path="url(#SvgjsClipPath78289ed2360d-191d-45e6-b1b4-b77f5403e025)"><path d=" M 1.7081390571501154 -4.403200745337292 C 1.5542831304282925 -4.70903234093744 1.50915646972549 -5.058139243768565 1.5801892239139448 -5.3930406604379595 L 2.1553383114250697 -5.240292732486635 C 2.1218610047109525 -5.05787687472449 2.1458914128348043 -4.869565858335758 2.224106137105748 -4.701403043970777 Z" fill="#d9d0db" transform="matrix(1,0,0,1,0,0)" fill-rule="nonzero"></path></g><g clip-path="url(#SvgjsClipPath78289ed2360d-191d-45e6-b1b4-b77f5403e025)"><path d=" M 4.748718888988818 -5.79627018374739 Z M 4.634105846187687 -5.995071716169713 L 4.748718888988818 -5.79627018374739 L 4.762055679423858 -5.775431448692639 L 5.367837707465466 -4.724534039881551 L 5.388676442520217 -4.688274640886285 L 5.390551928675144 -4.688274640886285 C 5.820393250281931 -3.9941577297261732 6.723197882987252 -3.765898333159404 7.431289252586898 -4.172307560930652 L 8.214617303294986 -4.625133273670389 C 8.936230402444872 -5.042159612341609 9.183414207764653 -5.965041336807235 8.766843782245886 -6.686917719987442 C 8.567916784374685 -7.034806905246718 8.237526020635524 -7.2881565499867005 7.849939439836844 -7.390016640734737 C 7.463679760075997 -7.493494265763317 7.052166950210388 -7.439929427049697 6.705267723279378 -7.241019685093269 L 5.126941930232546 -6.329325026447917 C 4.696959059560704 -7.023174246210247 3.7946048660728886 -7.251688327681684 3.086204606320792 -6.846125655805739 L 2.374978578902144 -6.434352251123862 L 2.6713053913807006 -5.920469044673705 L 3.382114644098254 -6.331200512602843 C 3.8207806529293036 -6.582197981394206 4.379793621414688 -6.432066792888224 4.633689071486592 -5.995071716169711 Z M 5.423268742711104 -5.81544181999776 L 7.001177761056841 -6.726719703942016 C 7.439843769887891 -6.977717172733378 7.9988567383732745 -6.8275859842273965 8.252752188445177 -6.3905909075088845 C 8.503237296748438 -5.952504365048198 8.354565477253193 -5.394427522617919 7.919332427569164 -5.139016480120548 L 7.133920503355604 -4.685982380030262 C 6.924007256645839 -4.564652369222101 6.6742654688825995 -4.532384049288749 6.440407400733495 -4.596375819294832 C 6.205245892006011 -4.658700116763926 6.004492875962119 -4.81192609316188 5.882346075967266 -5.02231956381394 Z" fill="#ffffff" transform="matrix(1,0,0,1,0,0)" fill-rule="evenodd"></path></g></g><g><path d=" M 0.0735 1.2645 Q 0.054 1.2645 0.039 1.2554999999999998 Q 0.024 1.2465 0.024 1.2225 Q 0.024 1.2165 0.027 1.20075 Q 0.03 1.1849999999999998 0.0405 1.134 L 0.0495 1.134 Q 0.075 1.14 0.09 1.1437499999999998 Q 0.105 1.1475 0.1245 1.1475 Q 0.156 1.1475 0.1785 1.1332499999999999 Q 0.201 1.119 0.213 1.0724999999999998 Q 0.225 1.0259999999999998 0.225 0.9284999999999999 L 0.225 0.09899999999999987 L 0.10350000000000001 0.038999999999999924 L 0.10350000000000001 0.014999999999999902 L 0.504 0.014999999999999902 L 0.504 0.038999999999999924 L 0.381 0.09899999999999987 L 0.381 0.6435 Q 0.381 0.813 0.34725 0.9464999999999999 Q 0.3135 1.0799999999999998 0.249 1.1504999999999999 Q 0.20700000000000002 1.1969999999999998 0.18 1.2209999999999999 Q 0.153 1.2449999999999999 0.129 1.2547499999999998 Q 0.105 1.2645 0.0735 1.2645 M 1.20003662109375 1.0199999999999998 Q 1.09203662109375 1.0199999999999998 0.99978662109375 0.9817499999999999 Q 0.9075366210937501 0.9434999999999999 0.8392866210937501 0.8752499999999999 Q 0.77103662109375 0.8069999999999999 0.7335366210937501 0.714 Q 0.6960366210937501 0.6209999999999999 0.6960366210937501 0.5099999999999999 Q 0.6960366210937501 0.3989999999999999 0.7335366210937501 0.3059999999999998 Q 0.77103662109375 0.21299999999999986 0.8392866210937501 0.14474999999999982 Q 0.9075366210937501 0.0764999999999999 0.99978662109375 0.038249999999999895 Q 1.09203662109375 -2.220446049250313e-16 1.20003662109375 -2.220446049250313e-16 Q 1.3080366210937502 -2.220446049250313e-16 1.4002866210937501 0.038249999999999895 Q 1.49253662109375 0.0764999999999999 1.56078662109375 0.14474999999999982 Q 1.62903662109375 0.21299999999999986 1.66728662109375 0.3059999999999998 Q 1.7055366210937501 0.3989999999999999 1.7055366210937501 0.5099999999999999 Q 1.7055366210937501 0.6209999999999999 1.66728662109375 0.714 Q 1.62903662109375 0.8069999999999999 1.56078662109375 0.8752499999999999 Q 1.49253662109375 0.9434999999999999 1.4002866210937501 0.9817499999999999 Q 1.3080366210937502 1.0199999999999998 1.20003662109375 1.0199999999999998 M 1.2300366210937501 0.9449999999999998 Q 1.32153662109375 0.9449999999999998 1.3905366210937502 0.8969999999999999 Q 1.4595366210937502 0.8489999999999999 1.49853662109375 0.7619999999999999 Q 1.53753662109375 0.6749999999999998 1.53753662109375 0.5564999999999999 Q 1.53753662109375 0.4109999999999999 1.48953662109375 0.3022499999999999 Q 1.44153662109375 0.1934999999999999 1.3590366210937501 0.13349999999999984 Q 1.27653662109375 0.0734999999999999 1.17603662109375 0.0734999999999999 Q 1.0845366210937502 0.0734999999999999 1.0140366210937501 0.12074999999999991 Q 0.9435366210937501 0.16799999999999993 0.9037866210937501 0.2549999999999999 Q 0.86403662109375 0.34199999999999986 0.86403662109375 0.4604999999999999 Q 0.86403662109375 0.6059999999999999 0.9127866210937501 0.7154999999999999 Q 0.96153662109375 0.825 1.04478662109375 0.8849999999999999 Q 1.12803662109375 0.9449999999999998 1.2300366210937501 0.9449999999999998 M 2.08200439453125 1.005 L 2.08200439453125 0.9809999999999999 L 2.23350439453125 0.9209999999999999 L 2.23350439453125 0.09749999999999992 L 1.99650439453125 0.09749999999999992 L 1.89000439453125 0.32399999999999984 L 1.8660043945312499 0.32399999999999984 L 1.8660043945312499 0.014999999999999902 L 2.7570043945312497 0.014999999999999902 L 2.7570043945312497 0.32399999999999984 L 2.7330043945312497 0.32399999999999984 L 2.62800439453125 0.09749999999999992 L 2.38950439453125 0.09749999999999992 L 2.38950439453125 0.9209999999999999 L 2.54250439453125 0.9809999999999999 L 2.54250439453125 1.005 L 2.08200439453125 1.005 M 2.9099934082031247 1.005 L 2.9099934082031247 0.9809999999999999 L 3.031493408203125 0.9209999999999999 L 3.031493408203125 0.09899999999999987 L 2.9099934082031247 0.038999999999999924 L 2.9099934082031247 0.014999999999999902 L 3.325493408203125 0.014999999999999902 L 3.325493408203125 0.038999999999999924 L 3.1889934082031246 0.09899999999999987 L 3.1889934082031246 0.9224999999999999 L 3.5444934082031248 0.9224999999999999 L 3.650993408203125 0.6644999999999999 L 3.674993408203125 0.6644999999999999 L 3.674993408203125 1.005 L 2.9099934082031247 1.005 M 3.8550146484375 1.005 L 3.8550146484375 0.9809999999999999 L 3.9780146484374996 0.9209999999999999 L 3.9780146484374996 0.09899999999999987 L 3.8550146484375 0.038999999999999924 L 3.8550146484375 0.014999999999999902 L 4.2555146484375 0.014999999999999902 L 4.2555146484375 0.038999999999999924 L 4.1340146484375 0.09899999999999987 L 4.1340146484375 0.9209999999999999 L 4.2555146484375 0.9809999999999999 L 4.2555146484375 1.005 L 3.8550146484375 1.005 M 4.434043945312499 1.005 L 4.434043945312499 0.9809999999999999 L 4.5555439453124995 0.9209999999999999 L 4.5555439453124995 0.10199999999999987 L 4.435543945312499 0.038999999999999924 L 4.435543945312499 0.014999999999999902 L 4.6710439453124994 0.014999999999999902 L 5.2455439453125 0.7214999999999998 L 5.2455439453125 0.09749999999999992 L 5.091043945312499 0.038999999999999924 L 5.091043945312499 0.014999999999999902 L 5.4705439453124995 0.014999999999999902 L 5.4705439453124995 0.038999999999999924 L 5.350543945312499 0.09749999999999992 L 5.350543945312499 1.0125 L 5.2860439453125 1.0125 L 4.6605439453125 0.24449999999999983 L 4.6605439453125 0.9224999999999999 L 4.8150439453125 0.9809999999999999 L 4.8150439453125 1.005 L 4.434043945312499 1.005 M 5.6295534667968745 1.005 L 5.6295534667968745 0.9809999999999999 L 5.751053466796875 0.9209999999999999 L 5.751053466796875 0.09899999999999987 L 5.6295534667968745 0.038999999999999924 L 5.6295534667968745 0.014999999999999902 L 6.030053466796875 0.014999999999999902 L 6.030053466796875 0.038999999999999924 L 5.908553466796874 0.09899999999999987 L 5.908553466796874 0.9209999999999999 L 6.030053466796875 0.9809999999999999 L 6.030053466796875 1.005 L 5.6295534667968745 1.005 M 5.908553466796874 0.49949999999999983 L 6.322553466796875 0.08999999999999986 L 6.2160534667968745 0.038999999999999924 L 6.2160534667968745 0.014999999999999902 L 6.540053466796874 0.014999999999999902 L 6.540053466796874 0.038999999999999924 L 6.445553466796874 0.0764999999999999 L 6.061553466796875 0.45299999999999985 L 6.523553466796875 0.9404999999999999 L 6.618053466796875 0.9809999999999999 L 6.618053466796875 1.005 L 6.373553466796874 1.005 L 5.908553466796874 0.49949999999999983" fill="#000000" fill-rule="nonzero"></path></g><g></g></g><defs><clipPath id="SvgjsClipPath7830"><path d=" M 0 -10.7675996673342 h 10.517702246258239 v 10.5175996673342 h -10.517702246258239 Z"></path></clipPath><clipPath id="SvgjsClipPath78289ed2360d-191d-45e6-b1b4-b77f5403e025"><path d=" M 0 -10.7675996673342 L 10.517702246258239 -10.7675996673342 L 10.517702246258239 -0.25 L 0 -0.25 Z"></path></clipPath></defs></svg>